<svg width="157" height="33" viewBox="0 0 157 33" fill="none" xmlns="http://www.w3.org/2000/svg">
<path fill-rule="evenodd" clip-rule="evenodd" d="M7.69832 4.73585C4.50349 7.22037 2.23603 10.6969 1.25698 14.6118H2.84943C5.53579 14.5724 8.16708 15.3711 10.3738 16.8957C10.5011 16.9875 10.6341 17.0713 10.7719 17.1466H10.9577C11.0955 17.0713 11.2284 16.9875 11.3558 16.8957C13.5821 15.4064 16.204 14.6109 18.8868 14.6109C21.5695 14.6109 24.1915 15.4064 26.4177 16.8957C26.5451 16.9875 26.6781 17.0713 26.8159 17.1466H27.0016C27.1394 17.0713 27.2724 16.9875 27.3997 16.8957C29.6064 15.3711 32.2377 14.5724 34.9241 14.6118H36.5165C35.5375 10.6969 33.27 7.22037 30.0752 4.73585C26.8804 2.25133 22.9419 0.901611 18.8868 0.901611C14.8317 0.901611 10.8932 2.25133 7.69832 4.73585ZM34.9241 21.9522C33.8883 21.9249 32.8751 22.2562 32.0577 22.8895C30.5447 23.9373 28.7455 24.499 26.9021 24.499C25.0587 24.499 23.2595 23.9373 21.7465 22.8895C20.9301 22.2542 19.9162 21.9226 18.8801 21.9522C17.8447 21.927 16.8322 22.2581 16.0137 22.8895C14.5035 23.938 12.7063 24.5002 10.8648 24.5002C9.02323 24.5002 7.22603 23.938 5.71585 22.8895C4.89837 22.2562 3.8852 21.9249 2.84943 21.9522H0.712891V17.7143H2.91578C4.76276 17.6779 6.57099 18.2436 8.06472 19.3249C8.89505 19.934 9.89954 20.2625 10.9311 20.2625C11.9627 20.2625 12.9672 19.934 13.7975 19.3249C15.3105 18.2772 17.1097 17.7155 18.9531 17.7155C20.7965 17.7155 22.5957 18.2772 24.1087 19.3249C24.939 19.934 25.9435 20.2625 26.9751 20.2625C28.0067 20.2625 29.0112 19.934 29.8415 19.3249C31.317 18.2573 33.0997 17.6923 34.9241 17.7143H37.0606V21.9522H34.9241ZM34.9241 29.5303C33.8883 29.5029 32.8751 29.8343 32.0577 30.4676C30.5447 31.5154 28.7455 32.0771 26.9021 32.0771C25.0587 32.0771 23.2595 31.5154 21.7465 30.4676C20.9301 29.8323 19.9162 29.5007 18.8801 29.5303C17.8447 29.5051 16.8322 29.8362 16.0137 30.4676C14.5035 31.5161 12.7063 32.0782 10.8648 32.0782C9.02323 32.0782 7.22603 31.5161 5.71585 30.4676C4.89837 29.8343 3.8852 29.5029 2.84943 29.5303H0.712891V25.2924H2.91578C4.76276 25.256 6.57099 25.8217 8.06472 26.903C8.89505 27.512 9.89954 27.8406 10.9311 27.8406C11.9627 27.8406 12.9672 27.512 13.7975 26.903C15.3105 25.8552 17.1097 25.2936 18.9531 25.2936C20.7965 25.2936 22.5957 25.8552 24.1087 26.903C24.939 27.512 25.9435 27.8406 26.9751 27.8406C28.0067 27.8406 29.0112 27.512 29.8415 26.903C31.317 25.8353 33.0997 25.2704 34.9241 25.2924H37.0606V29.5303H34.9241ZM48.6987 25.6231C49.3449 26.0761 50.1256 26.2993 50.9149 26.2568C51.4291 26.251 51.9394 26.1664 52.4277 26.0059C52.4769 26.0031 52.525 25.9898 52.5686 25.9669C52.6122 25.9441 52.6504 25.9122 52.6806 25.8734C52.7107 25.8346 52.7322 25.7898 52.7435 25.7421C52.7549 25.6944 52.7558 25.6448 52.7462 25.5967L52.5472 23.9464C52.5339 23.7087 52.3879 23.6295 52.1225 23.6295C51.9325 23.6814 51.7355 23.7036 51.5386 23.6955C51.0741 23.6955 50.8486 23.4447 50.8486 22.943V11.6551C50.8486 11.4043 50.7291 11.2723 50.477 11.2723H48.2476C48.1955 11.2658 48.1426 11.2713 48.093 11.2883C48.0433 11.3053 47.9983 11.3333 47.9611 11.3702C47.924 11.4071 47.8959 11.452 47.8788 11.5013C47.8618 11.5507 47.8563 11.6033 47.8627 11.6551V23.8936C47.8505 24.2277 47.9202 24.5598 48.0659 24.8611C48.2115 25.1624 48.4287 25.424 48.6987 25.6231ZM59.4744 26.2686C60.9275 26.2686 62.3352 25.7649 63.4555 24.8441V24.8309C64.4174 23.8329 64.9545 22.5037 64.9545 21.1211C64.9545 19.7384 64.4174 18.4092 63.4555 17.4112C62.3331 16.4952 60.9262 15.9945 59.4744 15.9945C58.0226 15.9945 56.6156 16.4952 55.4932 17.4112C54.5086 18.4001 53.9562 19.7358 53.9562 21.1277C53.9562 22.5196 54.5086 23.8552 55.4932 24.8441C56.6135 25.7649 58.0212 26.2686 59.4744 26.2686ZM59.4876 23.8294C58.7862 23.8294 58.1098 23.5699 57.59 23.1014C57.1194 22.5632 56.8603 21.8739 56.8603 21.1607C56.8603 20.4474 57.1194 19.7581 57.59 19.2199C58.1098 18.7514 58.7862 18.492 59.4876 18.492C60.1891 18.492 60.8654 18.7514 61.3853 19.2199C61.8558 19.7581 62.1149 20.4474 62.1149 21.1607C62.1149 21.8739 61.8558 22.5632 61.3853 23.1014C60.8654 23.5699 60.1891 23.8294 59.4876 23.8294ZM77.2303 16.3287C77.4824 16.3287 77.6018 16.4607 77.6018 16.7115V26.1775C77.625 26.8164 77.5048 27.4524 77.25 28.0393C76.9953 28.6262 76.6122 29.1493 76.1288 29.5705C75.0558 30.4807 73.6759 30.9525 72.2671 30.8907C70.9947 30.9352 69.7392 30.5895 68.6708 29.9005C68.2146 29.6025 67.8249 29.2143 67.5258 28.76C67.2267 28.3058 67.0248 27.7953 66.9324 27.2601C66.9324 26.9961 66.9324 26.8772 67.2907 26.8772H69.5201C69.6148 26.8804 69.7065 26.9108 69.7842 26.9647C69.8619 27.0186 69.9223 27.0936 69.9581 27.1809C70.1027 27.5819 70.3909 27.9156 70.7676 28.1182C71.2266 28.3539 71.7374 28.4718 72.2539 28.4615C72.5654 28.4785 72.8773 28.4335 73.1712 28.3292C73.4652 28.225 73.7353 28.0635 73.9657 27.8542C74.1763 27.6353 74.3401 27.3762 74.4473 27.0925C74.5545 26.8089 74.6029 26.5066 74.5895 26.2039V25.3722C73.7912 25.9563 72.8197 26.2583 71.8292 26.2303C71.136 26.2554 70.4448 26.1409 69.7971 25.8936C69.1495 25.6463 68.5588 25.2713 68.0604 24.7913C67.1037 23.8066 66.5689 22.4906 66.5689 21.1211C66.5689 19.7515 67.1037 18.4356 68.0604 17.4509C68.5612 16.975 69.1526 16.6037 69.7999 16.3588C70.4472 16.114 71.1371 16.0004 71.8292 16.025C72.8484 15.9982 73.846 16.3198 74.6558 16.936V16.7247C74.6497 16.6741 74.655 16.6228 74.6713 16.5745C74.6877 16.5262 74.7146 16.4821 74.7502 16.4455C74.7857 16.4088 74.8291 16.3805 74.877 16.3626C74.925 16.3447 74.9763 16.3376 75.0274 16.3419L77.2303 16.3287ZM72.0813 23.8803C72.4232 23.8909 72.7633 23.8265 73.0774 23.692C73.3916 23.5574 73.6722 23.3558 73.8994 23.1014C74.3406 22.5346 74.58 21.838 74.58 21.1211C74.58 20.4042 74.3406 19.7076 73.8994 19.1407C73.673 18.8898 73.3941 18.6912 73.0823 18.5589C72.7705 18.4267 72.4334 18.3639 72.0946 18.375C71.7488 18.3642 71.4047 18.4282 71.0862 18.5627C70.7678 18.6972 70.4824 18.8989 70.25 19.1539C69.7613 19.6961 69.5042 20.4065 69.5334 21.1343C69.5095 21.8549 69.7608 22.5577 70.2368 23.1014C70.4697 23.3557 70.7551 23.5569 71.0735 23.6914C71.3919 23.8258 71.7356 23.8903 72.0813 23.8803ZM85.0731 26.2609C86.5249 26.2609 87.9318 25.7602 89.0542 24.8441V24.8309C90.0161 23.8329 90.5532 22.5038 90.5532 21.1211C90.5532 19.7384 90.0161 18.4093 89.0542 17.4113C87.9307 16.4976 86.5242 15.9984 85.0731 15.9984C83.622 15.9984 82.2155 16.4976 81.092 17.4113C80.1292 18.4115 79.5918 19.7429 79.5918 21.1277C79.5918 22.5126 80.1292 23.8439 81.092 24.8441C82.2144 25.7602 83.6213 26.2609 85.0731 26.2609ZM84.0578 23.655C83.7297 23.5304 83.4298 23.3422 83.1754 23.1014C82.7126 22.5596 82.4585 21.8717 82.4585 21.1607C82.4585 20.4497 82.7126 19.7618 83.1754 19.22C83.4298 18.9792 83.7297 18.7911 84.0578 18.6664C84.3858 18.5418 84.7354 18.4831 85.0864 18.4939C85.4351 18.4849 85.7823 18.5444 86.1079 18.669C86.4335 18.7936 86.7312 18.9808 86.984 19.22C87.4469 19.7618 87.701 20.4497 87.701 21.1607C87.701 21.8717 87.4469 22.5596 86.984 23.1014C86.7312 23.3406 86.4335 23.5279 86.1079 23.6524C85.7823 23.777 85.4351 23.8365 85.0864 23.8276C84.7354 23.8383 84.3858 23.7797 84.0578 23.655ZM95.3443 14.0844C94.9936 14.3898 94.5432 14.5582 94.077 14.5582C93.6108 14.5582 93.1605 14.3898 92.8097 14.0844C92.6507 13.935 92.5239 13.755 92.4373 13.5552C92.3507 13.3554 92.3061 13.1401 92.3061 12.9226C92.3061 12.705 92.3507 12.4897 92.4373 12.29C92.5239 12.0902 92.6507 11.9101 92.8097 11.7608C93.1641 11.4629 93.6131 11.2996 94.077 11.2996C94.541 11.2996 94.9899 11.4629 95.3443 11.7608C95.5034 11.9101 95.6301 12.0902 95.7167 12.29C95.8033 12.4897 95.848 12.705 95.848 12.9226C95.848 13.1401 95.8033 13.3554 95.7167 13.5552C95.6301 13.755 95.5034 13.935 95.3443 14.0844ZM95.623 26.2568C94.8342 26.2953 94.0548 26.0724 93.4069 25.6231C93.141 25.421 92.9275 25.1586 92.7844 24.8577C92.6413 24.5569 92.5726 24.2263 92.5841 23.8936V16.7116C92.5776 16.6598 92.5832 16.6072 92.6002 16.5578C92.6173 16.5084 92.6454 16.4636 92.6825 16.4267C92.7197 16.3898 92.7647 16.3617 92.8144 16.3448C92.864 16.3278 92.9169 16.3223 92.9689 16.3287H95.1984C95.4505 16.3287 95.5699 16.4608 95.5699 16.7116V22.9431C95.5699 23.4447 95.7955 23.6956 96.2467 23.6956C96.448 23.7028 96.6492 23.6805 96.8439 23.6296C97.1093 23.6296 97.2553 23.7088 97.2686 23.9464L97.4676 25.5967C97.4772 25.6448 97.4763 25.6944 97.4649 25.7421C97.4536 25.7899 97.4321 25.8346 97.402 25.8734C97.3718 25.9122 97.3336 25.9441 97.29 25.967C97.2464 25.9898 97.1983 26.0031 97.1491 26.006C96.6565 26.1674 96.1417 26.252 95.623 26.2568ZM107.712 16.3415C107.06 16.0966 106.365 15.9845 105.669 16.0118C105.061 15.9987 104.457 16.1089 103.893 16.3359C103.33 16.5629 102.818 16.9019 102.391 17.3321C102.168 16.8991 101.821 16.5421 101.393 16.3069C100.965 16.0717 100.476 15.9689 99.989 16.0118C99.5007 16.0029 99.0148 16.0835 98.5558 16.2495C98.4625 16.2764 98.3813 16.3344 98.3258 16.4136C98.2702 16.4929 98.2437 16.5887 98.2506 16.6851V18.243C98.2506 18.4542 98.3966 18.5599 98.6885 18.5599H99.1264C99.2329 18.5443 99.3415 18.5538 99.4436 18.5874C99.5457 18.621 99.6385 18.678 99.7146 18.7537C99.7907 18.8293 99.8479 18.9217 99.8817 19.0233C99.9155 19.1248 99.925 19.2329 99.9094 19.3388V30.1646C99.8999 30.2152 99.9029 30.2674 99.9182 30.3165C99.9335 30.3657 99.9607 30.4105 99.9973 30.4469C100.034 30.4833 100.079 30.5102 100.128 30.5255C100.178 30.5407 100.23 30.5437 100.281 30.5343H102.51C102.763 30.5343 102.895 30.4154 102.895 30.1646V25.3986C103.701 25.9774 104.675 26.2787 105.669 26.2568C106.366 26.2847 107.062 26.1715 107.715 25.9242C108.367 25.6768 108.962 25.3004 109.464 24.8177C110.403 23.8158 110.924 22.4972 110.924 21.1277C110.924 19.7582 110.403 18.4396 109.464 17.4377C108.96 16.9592 108.364 16.5864 107.712 16.3415ZM104.434 23.677C104.119 23.5432 103.835 23.3474 103.599 23.1014C103.119 22.5389 102.868 21.8185 102.895 21.0815C102.864 20.3439 103.116 19.6221 103.599 19.0615C103.835 18.8155 104.119 18.6197 104.434 18.486C104.749 18.3522 105.088 18.2833 105.43 18.2833C105.772 18.2833 106.111 18.3522 106.426 18.486C106.74 18.6197 107.025 18.8155 107.261 19.0615C107.763 19.6124 108.026 20.3386 107.991 21.0815C108.022 21.8237 107.76 22.5484 107.261 23.1014C107.025 23.3474 106.74 23.5432 106.426 23.677C106.111 23.8107 105.772 23.8797 105.43 23.8797C105.088 23.8797 104.749 23.8107 104.434 23.677ZM117.187 26.2567C115.996 26.3054 114.815 26.0219 113.777 25.4382C113.36 25.1886 113.006 24.849 112.739 24.4445C112.473 24.0399 112.301 23.5809 112.238 23.1014C112.238 22.8373 112.33 22.7053 112.622 22.7053H114.573C114.666 22.7089 114.756 22.7379 114.833 22.7892C114.911 22.8404 114.972 22.9119 115.011 22.9958C115.29 23.7087 116.02 24.0651 117.187 24.0651C117.595 24.0837 118 24.0021 118.369 23.8275C118.496 23.7704 118.605 23.6801 118.684 23.5662C118.764 23.4522 118.81 23.319 118.82 23.1806C118.82 22.8373 118.607 22.5997 118.183 22.4413C117.679 22.2745 117.158 22.1638 116.63 22.1112C116.004 22.0408 115.384 21.9305 114.772 21.7812C114.177 21.6472 113.637 21.3391 113.22 20.8966C112.974 20.5958 112.793 20.248 112.688 19.8747C112.584 19.5015 112.557 19.1107 112.611 18.7269C112.664 18.343 112.797 17.9742 113 17.6434C113.202 17.3126 113.472 17.0268 113.79 16.8039C114.747 16.1977 115.869 15.9025 117.002 15.959C118.098 15.9221 119.183 16.192 120.133 16.7379C120.516 16.9537 120.846 17.2517 121.099 17.6103C121.351 17.9688 121.52 18.3789 121.593 18.8107C121.593 19.0747 121.474 19.2067 121.235 19.2067H119.271C119.188 19.2116 119.106 19.1915 119.035 19.1491C118.964 19.1067 118.907 19.044 118.873 18.9691C118.742 18.6564 118.494 18.4059 118.183 18.2694C117.831 18.0863 117.438 17.9954 117.041 18.0053C116.652 17.9843 116.264 18.0615 115.913 18.2298C115.79 18.2772 115.683 18.3604 115.608 18.4687C115.532 18.5769 115.491 18.7052 115.489 18.8371C115.497 19.0176 115.564 19.1907 115.678 19.3309C115.793 19.4711 115.95 19.571 116.126 19.616C116.635 19.8071 117.165 19.9399 117.705 20.0121C118.326 20.0933 118.941 20.2079 119.55 20.3553C120.144 20.4892 120.685 20.7973 121.102 21.2399C121.325 21.4837 121.498 21.769 121.609 22.0795C121.721 22.3899 121.77 22.7193 121.752 23.0486C121.764 23.505 121.656 23.9565 121.44 24.3591C121.224 24.7617 120.906 25.1017 120.518 25.3458C119.527 25.979 118.365 26.2967 117.187 26.2567ZM135.774 25.7376C135.785 25.6915 135.787 25.6436 135.779 25.5967L135.62 23.9464C135.618 23.8946 135.604 23.844 135.58 23.7982C135.555 23.7525 135.52 23.7129 135.478 23.6825C135.436 23.652 135.388 23.6314 135.336 23.6222C135.285 23.6131 135.232 23.6156 135.182 23.6296C134.983 23.6812 134.777 23.7035 134.572 23.6956C134.134 23.6956 133.908 23.4447 133.908 22.9298V16.7116C133.908 16.4608 133.789 16.3287 133.537 16.3287H131.281C131.029 16.3287 130.909 16.4608 130.909 16.7116V21.57C130.923 21.8586 130.877 22.1469 130.774 22.4171C130.672 22.6874 130.514 22.9338 130.312 23.1411C130.098 23.3378 129.848 23.4904 129.574 23.5901C129.301 23.6898 129.01 23.7346 128.72 23.722C128.435 23.733 128.152 23.6833 127.889 23.5763C127.626 23.4693 127.388 23.3073 127.193 23.1015C126.803 22.6521 126.599 22.0714 126.623 21.4776V16.7116C126.623 16.4608 126.503 16.3287 126.251 16.3287H124.022C123.77 16.3287 123.65 16.4608 123.65 16.7116V21.8737C123.622 22.4558 123.712 23.0376 123.915 23.5844C124.118 24.1311 124.429 24.6314 124.831 25.0554C125.236 25.46 125.721 25.7759 126.256 25.9829C126.791 26.1898 127.363 26.2831 127.937 26.2568C129.171 26.3214 130.383 25.91 131.321 25.1082C131.626 25.5107 132.031 25.8279 132.496 26.0291C132.961 26.2303 133.47 26.3088 133.975 26.2568C134.484 26.2479 134.99 26.1633 135.474 26.006C135.521 25.9995 135.567 25.9837 135.608 25.9596C135.649 25.9354 135.685 25.9033 135.713 25.8652C135.742 25.8271 135.762 25.7837 135.774 25.7376ZM156.866 25.5966C156.878 25.6439 156.879 25.6932 156.87 25.741C156.86 25.7888 156.84 25.8338 156.811 25.8729C156.781 25.9121 156.744 25.9443 156.701 25.9673C156.658 25.9903 156.61 26.0035 156.561 26.0059C156.068 26.1655 155.553 26.2501 155.035 26.2568C154.246 26.2973 153.466 26.0742 152.819 25.623C152.539 25.4298 152.311 25.1708 152.156 24.8691C152.001 24.5675 151.923 24.2324 151.93 23.8936V20.791C151.957 20.199 151.758 19.6185 151.372 19.1672C151.186 18.9608 150.956 18.7981 150.699 18.6908C150.442 18.5835 150.164 18.5343 149.886 18.5467C149.635 18.5372 149.385 18.5846 149.155 18.6852C148.925 18.7859 148.721 18.9371 148.559 19.1276C148.209 19.57 148.03 20.1228 148.055 20.6854V25.557C148.055 25.8079 147.935 25.9399 147.683 25.9399H145.44C145.388 25.9463 145.335 25.9408 145.286 25.9239C145.236 25.9069 145.191 25.8789 145.154 25.842C145.117 25.805 145.089 25.7602 145.072 25.7108C145.055 25.6614 145.049 25.6089 145.055 25.557V20.791C145.084 20.2055 144.901 19.6291 144.538 19.1672C144.376 18.9731 144.173 18.8169 143.944 18.7097C143.715 18.6024 143.464 18.5468 143.211 18.5467C142.94 18.5358 142.67 18.5819 142.419 18.682C142.167 18.7821 141.94 18.9339 141.751 19.1276C141.372 19.5558 141.176 20.1153 141.207 20.6854V25.557C141.214 25.6089 141.208 25.6614 141.191 25.7108C141.174 25.7602 141.146 25.805 141.109 25.842C141.072 25.8789 141.026 25.9069 140.977 25.9239C140.927 25.9408 140.874 25.9463 140.822 25.9399H138.659C138.407 25.9399 138.288 25.8079 138.288 25.557V19.3388C138.303 19.2329 138.294 19.1248 138.26 19.0233C138.226 18.9217 138.169 18.8293 138.093 18.7537C138.017 18.678 137.924 18.621 137.822 18.5874C137.72 18.5537 137.611 18.5443 137.505 18.5599H137.067C136.775 18.5599 136.629 18.4542 136.629 18.243V16.6851C136.622 16.5887 136.648 16.4929 136.704 16.4136C136.76 16.3343 136.841 16.2764 136.934 16.2495C137.393 16.0835 137.879 16.0029 138.367 16.0118C138.836 15.9721 139.306 16.0651 139.724 16.28C140.142 16.4949 140.491 16.823 140.729 17.2264C141.177 16.8043 141.707 16.4785 142.287 16.2695C142.867 16.0606 143.484 15.9728 144.1 16.0118C144.698 15.9828 145.294 16.0944 145.841 16.3375C146.387 16.5807 146.868 16.9485 147.245 17.4113C147.684 16.9364 148.224 16.5645 148.825 16.3225C149.427 16.0805 150.074 15.9744 150.722 16.0118C151.301 15.9849 151.88 16.0777 152.421 16.2845C152.962 16.4913 153.455 16.8075 153.867 17.2132C154.27 17.6363 154.583 18.1365 154.786 18.6835C154.989 19.2304 155.078 19.8127 155.048 20.395V22.943C155.048 23.4447 155.274 23.6955 155.698 23.6955C155.904 23.7051 156.11 23.6828 156.309 23.6295C156.583 23.6295 156.729 23.7351 156.747 23.9464L156.866 25.5966Z" fill="#394149"/>
</svg>
